<?xml version="1.0" encoding="UTF-8" standalone="no"?>
<svg
   width="125"
   height="38"
   viewBox="0 0 125 38"
   fill="none"
   version="1.1"
   id="svg108"
   sodipodi:docname="Logo2.svg"
   inkscape:version="1.2.2 (b0a8486541, 2022-12-01)"
   xmlns:inkscape="http://www.inkscape.org/namespaces/inkscape"
   xmlns:sodipodi="http://sodipodi.sourceforge.net/DTD/sodipodi-0.dtd"
   xmlns="http://www.w3.org/2000/svg"
   xmlns:svg="http://www.w3.org/2000/svg">
  <defs
     id="defs112" />
  <sodipodi:namedview
     id="namedview110"
     pagecolor="#ffffff"
     bordercolor="#000000"
     borderopacity="0.25"
     inkscape:showpageshadow="2"
     inkscape:pageopacity="0.0"
     inkscape:pagecheckerboard="0"
     inkscape:deskcolor="#d1d1d1"
     showgrid="false"
     inkscape:zoom="10.48"
     inkscape:cx="81.727099"
     inkscape:cy="18.98855"
     inkscape:window-width="1920"
     inkscape:window-height="1011"
     inkscape:window-x="0"
     inkscape:window-y="32"
     inkscape:window-maximized="1"
     inkscape:current-layer="svg108"
     showguides="true">
    <sodipodi:guide
       position="60.877863,33.038168"
       orientation="1,0"
       id="guide3026"
       inkscape:locked="false" />
  </sodipodi:namedview>
  <path
     d="M19.8354 37H13.3371C13.26 37 13.1969 36.9306 13.2109 36.8544L14.8723 22.7378C15.1808 20.3526 16.9403 20.0822 18.1881 20.0684C18.2582 20.0684 18.3072 20.1169 18.3142 20.1862L19.9616 36.8613C19.9686 36.9376 19.9125 37 19.8354 37Z"
     fill="#DBE5C7"
     id="path74" />
  <path
     d="M19.7528 15.4021C19.7528 17.1909 18.2877 18.647 16.4721 18.647C14.6565 18.647 13.1914 17.1979 13.1914 15.4021C13.1914 13.6063 14.6565 12.1572 16.4721 12.1572C18.2877 12.1572 19.7528 13.6063 19.7528 15.4021Z"
     fill="#DBE5C7"
     id="path76" />
  <path
     d="M16.4721 18.6401C18.2807 18.6401 19.7528 17.191 19.7528 15.3953C19.7528 13.5995 18.2877 12.1504 16.4721 12.1504C14.6565 12.1504 13.1914 13.5995 13.1914 15.3953C13.1914 17.191 14.6565 18.6401 16.4721 18.6401Z"
     fill="#DBE5C7"
     id="path78" />
  <path
     d="M44.3506 4.27393C43.5234 4.27393 42.8154 4.57207 42.2195 5.16141C41.6237 5.75076 41.3223 6.45105 41.3223 7.2692C41.3223 8.08735 41.6167 8.78764 42.2195 9.37698C42.8154 9.96633 43.5234 10.2575 44.3506 10.2575C45.1778 10.2575 45.8858 9.96633 46.4816 9.37698C47.0775 8.78764 47.3789 8.08735 47.3789 7.2692C47.3789 6.45105 47.0845 5.75076 46.4816 5.16141C45.8858 4.57207 45.1778 4.27393 44.3506 4.27393Z"
     fill="white"
     id="path80"
     style="fill:#ffffff" />
  <path
     d="M42.2891 19.0491V36.4522H46.4109V14.9722C43.4808 14.9722 42.2891 16.0885 42.2891 19.0491Z"
     fill="white"
     id="path82" />
  <path
     d="M18.3148 20.2238C18.3148 20.1545 18.2517 20.106 18.1886 20.106C16.9409 20.1198 15.1813 20.3833 14.8729 22.7754L13.2115 36.892C13.2045 36.9682 13.2606 37.0376 13.3377 37.0376H19.836C19.9131 37.0376 19.9692 36.9752 19.9622 36.8989L18.3148 20.2238Z"
     fill="#DBE5C7"
     id="path84" />
  <path
     d="M57.409 2.23145H53.2871V36.4968H57.409V2.23145Z"
     fill="white"
     id="path98" />
  <path
     d="M81.7421 32.5933V21.6245C81.7421 20.6884 81.5669 19.7871 81.2164 18.9273C80.8659 18.0676 80.3261 17.3049 79.5901 16.6393C78.854 15.9737 77.9147 15.4467 76.772 15.0515C75.6294 14.6563 74.2625 14.4622 72.6712 14.4622C71.0799 14.4622 69.6148 14.7256 68.0866 15.2526C66.5585 15.7795 65.2125 16.5769 64.0559 17.6308L66.5304 20.1684C66.8949 19.898 67.2805 19.6068 67.6731 19.3087C68.0726 19.0036 68.5143 18.7401 69.005 18.5183C69.4957 18.2895 70.0354 18.1022 70.6313 17.9497C71.2271 17.7972 71.9211 17.7209 72.7133 17.7209C73.5965 17.7209 74.3606 17.8526 75.0055 18.1092C75.6434 18.3657 76.1832 18.7124 76.6108 19.1492C77.0384 19.586 77.3609 20.0783 77.5712 20.6191C77.7815 21.1599 77.8936 21.7077 77.8936 22.2485V23.1568H74.8723C73.225 23.1568 71.6688 23.2885 70.2177 23.545C68.7666 23.8016 67.4978 24.2245 66.4113 24.8139C65.3247 25.4032 64.4695 26.1659 63.8456 27.1019C63.2217 28.038 62.9062 29.2028 62.9062 30.5895C62.9062 31.6503 63.1025 32.5794 63.5021 33.3768C63.9017 34.1741 64.4414 34.8467 65.1284 35.3944C65.8154 35.9352 66.6145 36.3443 67.5329 36.6216C68.4512 36.892 69.4115 37.0307 70.421 37.0307C72.0683 37.0307 73.5194 36.7464 74.7742 36.171C76.029 35.5955 77.1085 34.6178 78.0268 33.2242H78.118C78.118 34.3128 78.167 35.4013 78.2582 36.4899H81.9244C81.8613 35.9144 81.8192 35.3112 81.7842 34.6803C81.7562 34.0424 81.7351 33.349 81.7351 32.5933M77.8866 27.5179C77.8866 28.246 77.7815 28.974 77.5642 29.7159C77.3469 30.4577 76.9964 31.1303 76.5127 31.7335C76.022 32.3367 75.3841 32.829 74.5849 33.2034C73.7928 33.5848 72.8254 33.772 71.6968 33.772C70.2597 33.772 69.1241 33.5016 68.2829 32.9538C67.4417 32.413 67.0211 31.5186 67.0211 30.2775C67.0211 29.4316 67.2875 28.7382 67.8203 28.1905C68.353 27.6497 69.04 27.2267 69.8812 26.9217C70.7224 26.6166 71.6547 26.4155 72.6782 26.3115C73.7017 26.2075 74.7041 26.152 75.6785 26.152H77.8796V27.511L77.8866 27.5179Z"
     fill="white"
     id="path100" />
  <path
     d="M104.635 16.4173C103.92 15.7517 103.079 15.2594 102.112 14.9474C101.151 14.6285 100.149 14.469 99.1113 14.469C97.4289 14.469 95.9497 14.8226 94.6669 15.5368C93.3841 16.244 92.4798 17.18 91.9611 18.324H91.8699V15.0167H87.748V36.5037H91.8699V25.4447C91.8699 24.2036 92.0241 23.1359 92.3256 22.2276C92.634 21.3193 93.0616 20.5705 93.6084 19.9811C94.1552 19.3918 94.8001 18.9619 95.5362 18.6915C96.2722 18.4211 97.0643 18.2824 97.9196 18.2824C98.5645 18.2824 99.1814 18.3795 99.7772 18.5736C100.373 18.7678 100.899 19.0867 101.354 19.5235C101.81 19.9603 102.182 20.5358 102.455 21.243C102.728 21.9502 102.869 22.8031 102.869 23.8015V36.4898H106.991V22.6644C106.991 21.243 106.773 20.0158 106.346 18.9688C105.918 17.9288 105.343 17.076 104.628 16.4104"
     fill="white"
     id="path102" />
  <path
     d="M123.585 33.0924C123.066 33.1825 122.561 33.2311 122.071 33.2311C121.279 33.2311 120.676 33.0855 120.262 32.8012C119.848 32.5169 119.547 32.1356 119.344 31.671C119.147 31.1996 119.028 30.6726 119 30.0833C118.972 29.4939 118.951 28.8976 118.951 28.2944V18.5459H124.861V15.0098H118.951V13.0615C118.951 10.1009 117.759 8.98462 114.829 8.98462V15.0098H110.062V18.5459H114.829V29.7435C114.829 30.6171 114.864 31.4908 114.941 32.3505C115.019 33.2103 115.264 33.9938 115.678 34.6871C116.091 35.3805 116.729 35.949 117.605 36.3858C118.475 36.8226 119.708 37.0445 121.293 37.0445C121.72 37.0445 122.323 36.989 123.101 36.885C123.879 36.781 124.517 36.5938 125.001 36.3165V32.6001C124.573 32.8428 124.097 33.0092 123.578 33.0993"
     fill="white"
     id="path104" />
  <path
     d="M31.9632 15.3148C31.9632 21.8601 27.1684 27.2058 21.6725 27.9546C21.4622 27.9823 21.273 27.8367 21.2519 27.6287L20.4318 19.3501C20.4247 19.2531 20.4528 19.156 20.5159 19.0797C20.6421 18.9411 20.7542 18.7955 20.8664 18.6429C21.5464 17.7346 21.9459 16.6183 21.9389 15.4119C21.9179 12.4374 19.4644 10.0246 16.4571 10.0315C13.4498 10.0384 10.9893 12.4652 10.9893 15.4466C10.9893 16.9789 11.6412 18.3656 12.6857 19.3501C12.7418 19.4056 12.8049 19.4611 12.868 19.5096C12.9661 19.5997 13.0222 19.7315 13.0082 19.8632L11.3608 33.8204C11.3258 34.1462 10.9052 34.2572 10.7019 33.9937C4.64522 26.0202 0.221911 21.0211 1.11218 13.3804C1.82019 7.38984 6.03321 2.31452 11.9006 0.650479C22.4086 -2.33786 31.9632 5.38606 31.9632 15.3148Z"
     fill="#B4CE88"
     id="path106" />
  <text
     xml:space="preserve"
     style="font-weight:bold;font-size:10.7771px;font-family:sans-serif;-inkscape-font-specification:'sans-serif Bold';fill:#b4ce88;fill-opacity:1;stroke-width:1.69718"
     x="61.510559"
     y="9.7297287"
     id="text395"><tspan
       sodipodi:role="line"
       id="tspan393"
       x="61.510559"
       y="9.7297287"
       style="stroke-width:1.69718">BOOKS</tspan></text>
</svg>
